# xmcd
#
# Track frame offsets: 
#        150
#        22423
#        46158
#        69578
#        92853
#        110453
#        126983
#        145500
#        166435
#        185965
#
# Disc length: 2795 seconds
#
# Revision: 0
# Processed by: cddbd v1.5.2PL0 Copyright (c) Steve Scherf et al.
# Submitted via: ExactAudioCopy v1.0b3
#
DISCID=940ae90a
DTITLE=Phuong Dung, Che Linh - Buon Ga Nho
DYEAR=1993
DGENRE=
TTITLE0=Bong co may
TTITLE1=Che Linh - Bien man
TTITLE2=Phuong Dung - Rung la thap
TTITLE3=Che Linh - Sau thang quan truong
TTITLE4=Phuong Dung - Sau ngay hanh quan
TTITLE5=Mua mua di qua
TTITLE6=Phuong Dung - Khuya nay anh di roi
TTITLE7=Che Linh - Buon ga nho
TTITLE8=Phuong Dung - Suong trang mien que ngoai
TTITLE9=Phuong Dung - Nho nguoi thuong binh
EXTD=
EXTT0=
EXTT1=
EXTT2=
EXTT3=
EXTT4=
EXTT5=
EXTT6=
EXTT7=
EXTT8=
EXTT9=
PLAYORDER=
